<svg xmlns="http://www.w3.org/2000/svg" viewBox="0 0 24 24" fill="currentColor">
  <path d="M12.727,12.727c0,0-1.212-0.04-1.212-1.333c0-1.293,1.455-3.172,1.455-3.172s-0.081-0.971-1.01-0.971c-0.93,0-1.9,0.971-1.9,0.971s-1.212-0.93-2.141-0.93c-0.93,0-1.455,0.728-1.455,0.728s-0.97-0.404-1.697-0.404c-0.728,0-1.212,0.526-1.212,0.526s-0.849-0.444-1.414-0.444c-0.566,0-0.93,0.364-0.93,0.364s-0.525-0.283-0.848-0.283c-0.324,0-0.687,0.202-0.687,0.202S0,10.264,0,12.183c0,1.919,1.172,4.001,1.172,4.001s0.323,0.485,0.889,0.485c0.565,0,0.97-0.606,0.97-0.606s0.565,0.646,1.414,0.646c0.848,0,1.455-0.768,1.455-0.768s0.606,0.727,1.333,0.727c0.728,0,2.101-1.333,2.101-1.333s0.202,0.202,0.444,0.202c0.243,0,1.091-0.687,1.091-0.687s0.445,0.404,0.808,0.404c0.364,0,0.768-0.242,0.768-0.242s1.455,0.728,2.303,0.728c0.849,0,1.616-0.687,1.616-0.687s0.687,0.606,1.414,0.606c0.727,0,1.131-0.485,1.131-0.485s2.465-2.061,2.465-3.819S12.727,12.727,12.727,12.727z M17.091,15.637c-0.323,0.202-0.808,0.242-0.808,0.242s-0.849,0.727-1.778,0.727c-0.93,0-1.414-0.768-1.414-0.768s-0.283,0.202-0.606,0.202c-0.324,0-0.606-0.202-0.606-0.202s-0.768,0.525-1.414,0.525c-0.646,0-1.051-0.364-1.051-0.364s-0.283,0.162-0.485,0.162c-0.202,0-0.444-0.081-0.444-0.081s-1.859,1.414-2.828,1.414c-0.97,0-1.616-0.606-1.616-0.606s-0.445,0.445-1.131,0.445c-0.687,0-1.01-0.283-1.01-0.283s-1.01,2.021-2.626,2.021c-1.617,0-2.424-1.455-2.424-1.455V12.1c0-1.414,0.606-2.141,0.606-2.141s0.242-0.121,0.525-0.121c0.283,0,0.606,0.202,0.606,0.202s0.445-0.283,1.01-0.283c0.566,0,1.212,0.404,1.212,0.404s0.485-0.566,1.253-0.566c0.767,0,1.495,0.93,1.495,0.93s0.848-1.01,1.939-1.01c1.091,0,1.212,0.728,1.212,0.728s0.162-1.738-1.616-1.738c-1.778,0-3.071,1.212-3.071,1.212s-0.848-0.768-1.818-0.768c-0.97,0-2.465,1.01-2.465,1.01s-1.091-0.646-1.98-0.646C0.97,8.667,0,9.556,0,9.556v0.121c0,0.202,0.04,0.404,0.121,0.606L1.414,12.5l-1.293,2.243c0,0,0,1.858,0,2.182c0,0.323,0,0.565,0,0.565s0.687,2.222,3.313,2.222c2.626,0,3.636-2,3.636-2s0.445,0.404,1.131,0.404c0.687,0,1.212-0.445,1.212-0.445s0.687,0.606,1.535,0.606c0.849,0,2.061-0.889,2.061-0.889s1.051,0.93,2.182,0.93c1.131,0,1.737-0.606,1.737-0.606s0.566,0.485,1.172,0.485c0.606,0,0.97-0.242,0.97-0.242s0.93,0.364,1.657,0.364c0.727,0,1.253-0.283,1.253-0.283s1.253,0.525,2.02,0.525c0.768,0,1.293-0.283,1.293-0.283s1.616,0.404,2.545,0.404c0.93,0,1.616-0.323,1.616-0.323s2.303,0.202,3.394,0.202c1.091,0,1.737-0.404,1.737-0.404s1.172,0.242,1.818,0.242c0.647,0,1.051-0.121,1.051-0.121l0.202-0.242c-0.162-0.081-0.404-0.202-0.687-0.364c-0.283-0.162-0.606-0.323-0.97-0.485c-0.364-0.162-0.727-0.323-1.051-0.444c-0.323-0.121-0.606-0.242-0.848-0.323c-0.243-0.081-0.445-0.162-0.647-0.202c-0.202-0.04-0.364-0.081-0.485-0.121c-0.121-0.04-0.243-0.081-0.323-0.081c-0.081,0-0.162,0-0.202,0.04c-0.04,0.04-0.081,0.081-0.081,0.121s0.04,0.081,0.081,0.121c0.04,0.04,0.121,0.081,0.202,0.121c0.081,0.04,0.202,0.081,0.364,0.162c0.161,0.081,0.364,0.162,0.565,0.283c0.202,0.121,0.445,0.242,0.687,0.404c0.242,0.162,0.525,0.323,0.768,0.485c0.242,0.162,0.485,0.323,0.687,0.444c0.202,0.121,0.404,0.242,0.565,0.323c0.162,0.081,0.323,0.162,0.445,0.202c0.121,0.04,0.242,0.081,0.323,0.081c-2.424-0.283-4.283-1.859-4.283-1.859s-0.566,0.525-1.414,0.525c-0.849,0-1.414-0.566-1.414-0.566s-0.404,0.445-1.091,0.445c-0.687,0-1.131-0.364-1.131-0.364s-0.485,0.485-1.253,0.485c-0.767,0-1.252-0.445-1.252-0.445s-0.728,0.606-1.576,0.606c-0.849,0-1.455-0.525-1.455-0.525s-0.606,0.646-1.455,0.646c-0.848,0-1.414-0.566-1.414-0.566s-1.293,1.212-2.586,1.212c-1.293,0-2.182-0.97-2.182-0.97s-0.525,0.768-1.455,0.768c-0.93,0-1.455-0.646-1.455-0.646s-0.606,0.606-1.414,0.606c-0.808,0-1.333-0.525-1.333-0.525s-0.485,0.404-0.93,0.404c-0.444,0-0.768-0.242-0.768-0.242s-0.404,0.283-0.808,0.283c-0.404,0-0.687-0.162-0.687-0.162L2.747,19.213L2.505,19c-0.081-0.081-0.202-0.202-0.323-0.364c-0.121-0.162-0.283-0.364-0.444-0.565C1.576,17.87,1.455,17.627,1.374,17.425c-0.081-0.202-0.121-0.404-0.121-0.565c0-0.162,0.04-0.323,0.081-0.445c0.04-0.121,0.121-0.242,0.202-0.323c0.081-0.081,0.202-0.162,0.283-0.202c0.081-0.04,0.202-0.081,0.283-0.081c1.212,0.162,2.02,1.212,2.02,1.212s0.445-0.485,1.131-0.485c0.687,0,1.172,0.445,1.172,0.445s0.606-0.646,1.455-0.646c0.848,0,1.374,0.566,1.374,0.566s0.808-0.808,1.737-0.808c0.93,0,1.576,0.848,1.576,0.848s0.889-0.808,1.9-0.808c1.01,0,1.616,0.727,1.616,0.727s0.808-0.97,1.818-0.97c1.01,0,1.414,0.727,1.414,0.727s0.485-1.252,1.859-1.252c1.373,0,1.818,1.212,1.818,1.212V15.637z"/>
</svg>
